<svg xmlns="http://www.w3.org/2000/svg" xmlns:xlink="http://www.w3.org/1999/xlink" width="500" zoomAndPan="magnify" viewBox="0 0 375 374.999991" height="500" preserveAspectRatio="xMidYMid meet" version="1.0"><defs><g/><clipPath id="4d1539b6fc"><path d="M 248.328125 75.824219 L 375 75.824219 L 375 202.574219 L 248.328125 202.574219 Z M 248.328125 75.824219 " clip-rule="nonzero"/></clipPath></defs><g clip-path="url(#4d1539b6fc)"><path fill="#ffffff" d="M 353.574219 83.273438 L 348.917969 83.273438 L 348.917969 79.546875 C 348.917969 77.492188 347.25 75.824219 345.191406 75.824219 C 343.136719 75.824219 341.46875 77.492188 341.46875 79.546875 L 341.46875 83.273438 L 281.859375 83.273438 L 281.859375 79.546875 C 281.859375 77.492188 280.191406 75.824219 278.132812 75.824219 C 276.074219 75.824219 274.40625 77.492188 274.40625 79.546875 L 274.40625 83.273438 L 269.753906 83.273438 C 257.941406 83.273438 248.328125 92.886719 248.328125 104.699219 L 248.328125 181.066406 C 248.328125 192.878906 257.941406 202.492188 269.753906 202.492188 L 353.574219 202.492188 C 365.386719 202.492188 374.996094 192.878906 374.996094 181.066406 L 374.996094 104.699219 C 374.996094 92.886719 365.386719 83.273438 353.574219 83.273438 Z M 367.546875 181.066406 C 367.546875 188.773438 361.277344 195.039062 353.574219 195.039062 L 269.753906 195.039062 C 262.046875 195.039062 255.78125 188.773438 255.78125 181.066406 L 255.78125 120.53125 L 367.546875 120.53125 Z M 367.546875 113.078125 L 255.78125 113.078125 L 255.78125 104.699219 C 255.78125 96.992188 262.046875 90.726562 269.753906 90.726562 L 274.40625 90.726562 L 274.40625 98.175781 C 274.40625 100.234375 276.074219 101.902344 278.132812 101.902344 C 280.191406 101.902344 281.859375 100.234375 281.859375 98.175781 L 281.859375 90.726562 L 341.46875 90.726562 L 341.46875 98.175781 C 341.46875 100.234375 343.136719 101.902344 345.191406 101.902344 C 347.25 101.902344 348.917969 100.234375 348.917969 98.175781 L 348.917969 90.726562 L 353.574219 90.726562 C 361.277344 90.726562 367.546875 96.992188 367.546875 104.699219 Z M 367.546875 113.078125 " fill-opacity="1" fill-rule="nonzero"/></g><path fill="#ffffff" d="M 297.332031 162.441406 L 295.222656 174.730469 C 294.703125 177.765625 297.898438 180.09375 300.628906 178.65625 L 311.664062 172.855469 L 322.699219 178.65625 C 325.433594 180.09375 328.625 177.761719 328.105469 174.730469 L 325.996094 162.441406 L 334.925781 153.738281 C 337.128906 151.589844 335.910156 147.828125 332.859375 147.386719 L 320.523438 145.59375 L 315.003906 134.414062 C 313.640625 131.648438 309.6875 131.648438 308.324219 134.414062 L 302.804688 145.59375 L 290.46875 147.386719 C 287.417969 147.828125 286.195312 151.585938 288.402344 153.738281 Z M 297.332031 162.441406 " fill-opacity="1" fill-rule="nonzero"/><g fill="#ffffff" fill-opacity="1"><g transform="translate(6.423962, 184.114978)"><g><path d="M 24.125 0 L 1.53125 0 C 2.394531 -0.769531 3.054688 -2.070312 3.515625 -3.90625 C 3.984375 -5.738281 4.21875 -7.601562 4.21875 -9.5 L 4.21875 -64.40625 C 4.21875 -66.34375 3.984375 -68.21875 3.515625 -70.03125 C 3.054688 -71.84375 2.394531 -73.128906 1.53125 -73.890625 L 21.4375 -73.890625 L 38.4375 -34.921875 L 55.359375 -73.890625 L 75.28125 -73.890625 C 74.40625 -73.128906 73.738281 -71.84375 73.28125 -70.03125 C 72.820312 -68.21875 72.59375 -66.34375 72.59375 -64.40625 L 72.59375 -9.5 C 72.59375 -7.601562 72.820312 -5.738281 73.28125 -3.90625 C 73.738281 -2.070312 74.40625 -0.769531 75.28125 0 L 52.6875 0 C 53.550781 -0.769531 54.210938 -2.082031 54.671875 -3.9375 C 55.128906 -5.800781 55.359375 -7.679688 55.359375 -9.578125 L 55.359375 -42.65625 L 38.4375 -2.140625 L 21.4375 -42.890625 L 21.4375 -9.578125 C 21.4375 -7.679688 21.664062 -5.800781 22.125 -3.9375 C 22.582031 -2.082031 23.25 -0.769531 24.125 0 Z M 24.125 0 "/></g></g></g><g fill="#ffffff" fill-opacity="1"><g transform="translate(85.989533, 184.114978)"><g><path d="M 28.796875 1.15625 C 24.296875 1.15625 20.375 0.414062 17.03125 -1.0625 C 13.6875 -2.550781 10.929688 -4.582031 8.765625 -7.15625 C 6.597656 -9.738281 4.976562 -12.710938 3.90625 -16.078125 C 2.832031 -19.453125 2.296875 -23.023438 2.296875 -26.796875 C 2.296875 -30.578125 2.859375 -34.148438 3.984375 -37.515625 C 5.109375 -40.890625 6.804688 -43.863281 9.078125 -46.4375 C 11.347656 -49.019531 14.179688 -51.050781 17.578125 -52.53125 C 20.972656 -54.007812 24.96875 -54.75 29.5625 -54.75 C 33.4375 -54.75 36.828125 -53.941406 39.734375 -52.328125 C 42.648438 -50.722656 44.910156 -48.65625 46.515625 -46.125 C 48.128906 -43.601562 48.9375 -40.992188 48.9375 -38.296875 C 48.9375 -35.734375 48.257812 -33.253906 46.90625 -30.859375 C 45.550781 -28.460938 43.328125 -26.507812 40.234375 -25 C 37.148438 -23.5 32.976562 -22.75 27.71875 -22.75 L 18.765625 -22.75 C 19.378906 -20.039062 20.601562 -17.921875 22.4375 -16.390625 C 24.269531 -14.859375 26.617188 -14.09375 29.484375 -14.09375 C 31.367188 -14.09375 32.988281 -14.472656 34.34375 -15.234375 C 35.695312 -16.003906 36.820312 -16.882812 37.71875 -17.875 C 38.613281 -18.875 39.238281 -19.707031 39.59375 -20.375 C 40.863281 -18.382812 42.367188 -16.457031 44.109375 -14.59375 C 45.847656 -12.726562 47.507812 -11.082031 49.09375 -9.65625 C 46.84375 -6.070312 43.890625 -3.375 40.234375 -1.5625 C 36.585938 0.25 32.773438 1.15625 28.796875 1.15625 Z M 18.609375 -23.59375 C 21.054688 -24.050781 23.425781 -24.851562 25.71875 -26 C 28.019531 -27.144531 29.921875 -28.582031 31.421875 -30.3125 C 32.929688 -32.050781 33.6875 -34.019531 33.6875 -36.21875 C 33.6875 -37.238281 33.328125 -38.234375 32.609375 -39.203125 C 31.898438 -40.171875 30.726562 -40.65625 29.09375 -40.65625 C 27.613281 -40.65625 26.046875 -40.128906 24.390625 -39.078125 C 22.734375 -38.035156 21.316406 -36.484375 20.140625 -34.421875 C 18.960938 -32.359375 18.375 -29.816406 18.375 -26.796875 C 18.375 -25.679688 18.453125 -24.613281 18.609375 -23.59375 Z M 18.609375 -23.59375 "/></g></g></g><g fill="#ffffff" fill-opacity="1"><g transform="translate(139.365113, 184.114978)"><g><path d="M 28.796875 1.15625 C 24.296875 1.15625 20.375 0.414062 17.03125 -1.0625 C 13.6875 -2.550781 10.929688 -4.582031 8.765625 -7.15625 C 6.597656 -9.738281 4.976562 -12.710938 3.90625 -16.078125 C 2.832031 -19.453125 2.296875 -23.023438 2.296875 -26.796875 C 2.296875 -30.578125 2.859375 -34.148438 3.984375 -37.515625 C 5.109375 -40.890625 6.804688 -43.863281 9.078125 -46.4375 C 11.347656 -49.019531 14.179688 -51.050781 17.578125 -52.53125 C 20.972656 -54.007812 24.96875 -54.75 29.5625 -54.75 C 33.4375 -54.75 36.828125 -53.941406 39.734375 -52.328125 C 42.648438 -50.722656 44.910156 -48.65625 46.515625 -46.125 C 48.128906 -43.601562 48.9375 -40.992188 48.9375 -38.296875 C 48.9375 -35.734375 48.257812 -33.253906 46.90625 -30.859375 C 45.550781 -28.460938 43.328125 -26.507812 40.234375 -25 C 37.148438 -23.5 32.976562 -22.75 27.71875 -22.75 L 18.765625 -22.75 C 19.378906 -20.039062 20.601562 -17.921875 22.4375 -16.390625 C 24.269531 -14.859375 26.617188 -14.09375 29.484375 -14.09375 C 31.367188 -14.09375 32.988281 -14.472656 34.34375 -15.234375 C 35.695312 -16.003906 36.820312 -16.882812 37.71875 -17.875 C 38.613281 -18.875 39.238281 -19.707031 39.59375 -20.375 C 40.863281 -18.382812 42.367188 -16.457031 44.109375 -14.59375 C 45.847656 -12.726562 47.507812 -11.082031 49.09375 -9.65625 C 46.84375 -6.070312 43.890625 -3.375 40.234375 -1.5625 C 36.585938 0.25 32.773438 1.15625 28.796875 1.15625 Z M 18.609375 -23.59375 C 21.054688 -24.050781 23.425781 -24.851562 25.71875 -26 C 28.019531 -27.144531 29.921875 -28.582031 31.421875 -30.3125 C 32.929688 -32.050781 33.6875 -34.019531 33.6875 -36.21875 C 33.6875 -37.238281 33.328125 -38.234375 32.609375 -39.203125 C 31.898438 -40.171875 30.726562 -40.65625 29.09375 -40.65625 C 27.613281 -40.65625 26.046875 -40.128906 24.390625 -39.078125 C 22.734375 -38.035156 21.316406 -36.484375 20.140625 -34.421875 C 18.960938 -32.359375 18.375 -29.816406 18.375 -26.796875 C 18.375 -25.679688 18.453125 -24.613281 18.609375 -23.59375 Z M 18.609375 -23.59375 "/></g></g></g><g fill="#ffffff" fill-opacity="1"><g transform="translate(192.740692, 184.114978)"><g><path d="M 0 -39.0625 L 0 -53.609375 C 1.425781 -54.222656 3.046875 -55.085938 4.859375 -56.203125 C 6.671875 -57.328125 8.519531 -58.628906 10.40625 -60.109375 C 12.300781 -61.585938 14.066406 -63.128906 15.703125 -64.734375 C 17.335938 -66.347656 18.6875 -67.921875 19.75 -69.453125 L 20.140625 -69.453125 L 20.140625 -53.609375 L 31.703125 -53.609375 L 31.703125 -39.0625 L 20.140625 -39.0625 L 20.140625 -21.671875 C 20.140625 -18.203125 20.648438 -15.878906 21.671875 -14.703125 C 22.691406 -13.523438 24.144531 -12.9375 26.03125 -12.9375 C 27.207031 -12.9375 28.253906 -13.164062 29.171875 -13.625 C 30.085938 -14.082031 30.90625 -14.722656 31.625 -15.546875 C 31.882812 -13.242188 32.289062 -11.019531 32.84375 -8.875 C 33.40625 -6.738281 33.894531 -4.800781 34.3125 -3.0625 C 33.03125 -1.832031 31.238281 -0.820312 28.9375 -0.03125 C 26.644531 0.757812 24.273438 1.15625 21.828125 1.15625 C 16.109375 1.15625 11.789062 -0.523438 8.875 -3.890625 C 5.96875 -7.265625 4.515625 -12.039062 4.515625 -18.21875 L 4.515625 -39.0625 Z M 0 -39.0625 "/></g></g></g></svg>